# xmcd
#
# Track frame offsets: 
#        150
#        14245
#        29684
#        44928
#        61594
#        78105
#        90782
#        105541
#        121664
#        139382
#
# Disc length: 2082 seconds
#
# Revision: 1
# Processed by: cddbd v1.5.2PL0 Copyright (c) Steve Scherf et al.
# Submitted via: ExactAudioCopy v0.95b4
#
DISCID=7e08200a
DTITLE=Billy Dean - The Best Of Billy Dean
DYEAR=2003
DGENRE=Country
TTITLE0=Billy The Kid
TTITLE1=We Just Disagree
TTITLE2=It's What I Do
TTITLE3=Only The Wind
TTITLE4=Cowboy Band
TTITLE5=Men Will Be Boys
TTITLE6=You Don't Count The Cost
TTITLE7=Only Here For A Little While
TTITLE8=I Wanna Take Care Of You
TTITLE9=Real Man
EXTD=YEAR: 2003
EXTT0=
EXTT1=
EXTT2=
EXTT3=
EXTT4=
EXTT5=
EXTT6=
EXTT7=
EXTT8=
EXTT9=
PLAYORDER=
